<svg width="211" height="211" viewBox="0 0 211 211" fill="none" xmlns="http://www.w3.org/2000/svg">
<path d="M211 105.5C211 127.779 203.947 149.487 190.851 167.511C177.756 185.536 159.29 198.952 138.101 205.836C116.912 212.721 94.0877 212.721 72.8987 205.836C51.7097 198.952 33.2442 185.536 20.1487 167.511L54.2892 142.707C62.1465 153.521 73.2258 161.571 85.9392 165.702C98.6526 169.833 112.347 169.833 125.061 165.702C137.774 161.571 148.853 153.521 156.711 142.707C164.568 131.892 168.8 118.868 168.8 105.5H211Z" fill="#C2ECC1"/>
<path d="M72.4884 5.29778C88.3553 0.0704431 105.237 -1.31415 121.743 1.25795C138.25 3.83005 153.91 10.2853 167.434 20.0924C180.958 29.8996 191.96 42.7782 199.534 57.6683C207.108 72.5584 211.038 89.0344 211 105.74L168.8 105.644C168.823 95.6206 166.465 85.735 161.92 76.801C157.376 67.8669 150.775 60.1397 142.66 54.2555C134.546 48.3712 125.15 44.498 115.246 42.9548C105.342 41.4115 95.2132 42.2423 85.6931 45.3787L72.4884 5.29778Z" fill="#C5C7F6"/>
<path d="M20.4117 167.872C10.5688 154.444 4.04358 138.877 1.36959 122.444C-1.30439 106.011 -0.0512358 89.179 5.0266 73.3232C10.1044 57.4674 18.8628 43.0385 30.5855 31.2163C42.3083 19.394 56.6626 10.5139 72.4749 5.30223L85.6849 45.3813C76.1976 48.5084 67.585 53.8364 60.5513 60.9298C53.5177 68.0231 48.2627 76.6805 45.216 86.1939C42.1693 95.7074 41.4174 105.807 43.0218 115.667C44.6261 125.526 48.5413 134.866 54.447 142.923L20.4117 167.872Z" fill="#1F1F1F"/>
</svg>
